{
  "accessors": [
    {
      "bufferView": 2,
      "componentType": 5126,
      "count": 65532,
      "max": [
        -11430.40625,
        12760.9677734375,
        -12990.009765625
      ],
      "min": [
        -11449.3095703125,
        12729.130859375,
        -13008.5048828125
      ],
      "type": "VEC3"
    },
    {
      "bufferView": 2,
      "byteOffset": 786384,
      "componentType": 5126,
      "count": 65532,
      "max": [
        0.99999946355819702,
        0.9980851411819458,
        0.99997586011886597
      ],
      "min": [
        -1,
        -0.99908214807510376,
        -0.99999922513961792
      ],
      "type": "VEC3"
    },
    {
      "bufferView": 3,
      "componentType": 5126,
      "count": 65532,
      "max": [
        0.9902225136756897,
        0.99999445676803589,
        0.99975836277008057,
        1
      ],
      "min": [
        -0.99997937679290771,
        -1,
        -1,
        -1
      ],
      "type": "VEC4"
    },
    {
      "bufferView": 1,
      "componentType": 5126,
      "count": 65532,
      "max": [
        0.99877899885177612,
        0.98868000507354736
      ],
      "min": [
        0.0012209999840706587,
        0.0012440000427886844
      ],
      "type": "VEC2"
    },
    {
      "bufferView": 0,
      "componentType": 5125,
      "count": 360321,
      "max": [
        65531
      ],
      "min": [
        0
      ],
      "type": "SCALAR"
    },
    {
      "bufferView": 2,
      "byteOffset": 1572768,
      "componentType": 5126,
      "count": 65532,
      "max": [
        -11435.0439453125,
        12757.1259765625,
        -12990.0625
      ],
      "min": [
        -11445.998046875,
        12737.9677734375,
        -12999.2109375
      ],
      "type": "VEC3"
    },
    {
      "bufferView": 2,
      "byteOffset": 2359152,
      "componentType": 5126,
      "count": 65532,
      "max": [
        0.99999648332595825,
        0.99986362457275391,
        0.99999964237213135
      ],
      "min": [
        -1,
        -0.99991285800933838,
        -0.99998921155929565
      ],
      "type": "VEC3"
    },
    {
      "bufferView": 3,
      "byteOffset": 1048512,
      "componentType": 5126,
      "count": 65532,
      "max": [
        0.99994403123855591,
        0.99999719858169556,
        0.99959021806716919,
        1
      ],
      "min": [
        -0.99998849630355835,
        -0.99992924928665161,
        -0.99999994039535522,
        -1
      ],
      "type": "VEC4"
    },
    {
      "bufferView": 1,
      "byteOffset": 524256,
      "componentType": 5126,
      "count": 65532,
      "max": [
        0.99877899885177612,
        0.99091899394989014
      ],
      "min": [
        0.0012209999840706587,
        0.0012440000427886844
      ],
      "type": "VEC2"
    },
    {
      "bufferView": 0,
      "byteOffset": 1441284,
      "componentType": 5125,
      "count": 349149,
      "max": [
        65531
      ],
      "min": [
        0
      ],
      "type": "SCALAR"
    },
    {
      "bufferView": 2,
      "byteOffset": 3145536,
      "componentType": 5126,
      "count": 65532,
      "max": [
        -11430.4072265625,
        12766.3642578125,
        -12989.501953125
      ],
      "min": [
        -11446.93359375,
        12728.763671875,
        -12999.2841796875
      ],
      "type": "VEC3"
    },
    {
      "bufferView": 2,
      "byteOffset": 3931920,
      "componentType": 5126,
      "count": 65532,
      "max": [
        0.99999088048934937,
        0.99999654293060303,
        0.99999326467514038
      ],
      "min": [
        -1,
        -0.99996721744537354,
        -0.99999046325683594
      ],
      "type": "VEC3"
    },
    {
      "bufferView": 3,
      "byteOffset": 2097024,
      "componentType": 5126,
      "count": 65532,
      "max": [
        0.99997979402542114,
        0.9999927282333374,
        1,
        1
      ],
      "min": [
        -0.99968087673187256,
        -0.99999910593032837,
        -0.99999654293060303,
        -1
      ],
      "type": "VEC4"
    },
    {
      "bufferView": 1,
      "byteOffset": 1048512,
      "componentType": 5126,
      "count": 65532,
      "max": [
        0.99877899885177612,
        0.99875599145889282
      ],
      "min": [
        0.0012209999840706587,
        0.0012440000427886844
      ],
      "type": "VEC2"
    },
    {
      "bufferView": 0,
      "byteOffset": 2837880,
      "componentType": 5125,
      "count": 351315,
      "max": [
        65531
      ],
      "min": [
        0
      ],
      "type": "SCALAR"
    },
    {
      "bufferView": 2,
      "byteOffset": 4718304,
      "componentType": 5126,
      "count": 32515,
      "max": [
        -11430.3037109375,
        12766.2451171875,
        -12988.5048828125
      ],
      "min": [
        -11445.2763671875,
        12728.7255859375,
        -12999.412109375
      ],
      "type": "VEC3"
    },
    {
      "bufferView": 2,
      "byteOffset": 5108484,
      "componentType": 5126,
      "count": 32515,
      "max": [
        0.99998509883880615,
        0.99997252225875854,
        0.99999666213989258
      ],
      "min": [
        -1,
        -0.99996721744537354,
        -0.99999797344207764
      ],
      "type": "VEC3"
    },
    {
      "bufferView": 3,
      "byteOffset": 3145536,
      "componentType": 5126,
      "count": 32515,
      "max": [
        0.99997067451477051,
        0.9999077320098877,
        0.99860036373138428,
        1
      ],
      "min": [
        -0.99998331069946289,
        -0.99999749660491943,
        -0.9999731183052063,
        -1
      ],
      "type": "VEC4"
    },
    {
      "bufferView": 1,
      "byteOffset": 1572768,
      "componentType": 5126,
      "count": 32515,
      "max": [
        0.99877899885177612,
        0.97885298728942871
      ],
      "min": [
        0.0012209999840706587,
        0.0012440000427886844
      ],
      "type": "VEC2"
    },
    {
      "bufferView": 0,
      "byteOffset": 4243140,
      "componentType": 5125,
      "count": 177219,
      "max": [
        32514
      ],
      "min": [
        0
      ],
      "type": "SCALAR"
    }
  ],
  "asset": {
    "extras": {
      "author": "Geoffrey Marchal (https://sketchfab.com/geoffreymarchal)",
      "license": "CC-BY-NC-4.0 (http://creativecommons.org/licenses/by-nc/4.0/)",
      "source": "https://sketchfab.com/3d-models/erato-4a644dd9390547e0954596d4dd52072b",
      "title": "Erato"
    },
    "generator": "Sketchfab-5.0.1",
    "version": "2.0"
  },
  "bufferViews": [
    {
      "buffer": 0,
      "byteLength": 4952016,
      "byteOffset": 0,
      "name": "floatBufferViews",
      "target": 34963
    },
    {
      "buffer": 0,
      "byteLength": 1832888,
      "byteOffset": 4952016,
      "byteStride": 8,
      "name": "floatBufferViews",
      "target": 34962
    },
    {
      "buffer": 0,
      "byteLength": 5498664,
      "byteOffset": 6784904,
      "byteStride": 12,
      "name": "floatBufferViews",
      "target": 34962
    },
    {
      "buffer": 0,
      "byteLength": 3665776,
      "byteOffset": 12283568,
      "byteStride": 16,
      "name": "floatBufferViews",
      "target": 34962
    }
  ],
  "buffers": [
    {
      "byteLength": 15949344,
      "uri": "scene.bin"
    }
  ],
  "images": [
    {
      "uri": "textures/Material_0_baseColor.jpeg"
    }
  ],
  "materials": [
    {
      "doubleSided": true,
      "emissiveFactor": [
        0,
        0,
        0
      ],
      "name": "Material_0",
      "pbrMetallicRoughness": {
        "baseColorFactor": [
          1,
          1,
          1,
          1
        ],
        "baseColorTexture": {
          "index": 0,
          "texCoord": 0
        },
        "metallicFactor": 0,
        "roughnessFactor": 0.59999999999999998
      }
    }
  ],
  "meshes": [
    {
      "primitives": [
        {
          "attributes": {
            "NORMAL": 1,
            "POSITION": 0,
            "TANGENT": 2,
            "TEXCOORD_0": 3
          },
          "indices": 4,
          "material": 0,
          "mode": 4
        }
      ]
    },
    {
      "primitives": [
        {
          "attributes": {
            "NORMAL": 6,
            "POSITION": 5,
            "TANGENT": 7,
            "TEXCOORD_0": 8
          },
          "indices": 9,
          "material": 0,
          "mode": 4
        }
      ]
    },
    {
      "primitives": [
        {
          "attributes": {
            "NORMAL": 11,
            "POSITION": 10,
            "TANGENT": 12,
            "TEXCOORD_0": 13
          },
          "indices": 14,
          "material": 0,
          "mode": 4
        }
      ]
    },
    {
      "primitives": [
        {
          "attributes": {
            "NORMAL": 16,
            "POSITION": 15,
            "TANGENT": 17,
            "TEXCOORD_0": 18
          },
          "indices": 19,
          "material": 0,
          "mode": 4
        }
      ]
    }
  ],
  "nodes": [
    {
      "children": [
        1
      ],
      "name": "RootNode (gltf orientation matrix)",
      "rotation": [
        -0.70710678118654746,
        -0,
        -0,
        0.70710678118654757
      ]
    },
    {
      "children": [
        2
      ],
      "matrix": [
        0.92631340026855469,
        -0.37648025155067444,
        -0.014356158673763275,
        0,
        0,
        -0.038104873150587082,
        0.99927371740341187,
        0,
        -0.37675386667251587,
        -0.92564064264297485,
        -0.035297054797410965,
        0,
        -5739.3564453125,
        -3104.3310546875,
        -26356.67578125,
        1
      ],
      "name": "RootNode (model correction matrix)"
    },
    {
      "children": [
        3,
        4,
        5,
        6
      ],
      "name": "erato-1.obj.cleaner.gles"
    },
    {
      "mesh": 0,
      "name": ""
    },
    {
      "mesh": 1,
      "name": ""
    },
    {
      "mesh": 2,
      "name": ""
    },
    {
      "mesh": 3,
      "name": ""
    }
  ],
  "samplers": [
    {
      "magFilter": 9729,
      "minFilter": 9987,
      "wrapS": 10497,
      "wrapT": 10497
    }
  ],
  "scene": 0,
  "scenes": [
    {
      "name": "OSG_Scene",
      "nodes": [
        0
      ]
    }
  ],
  "textures": [
    {
      "sampler": 0,
      "source": 0
    }
  ]
}

